<svg width="363" height="232" viewBox="0 0 363 232" fill="none" xmlns="http://www.w3.org/2000/svg">
<rect y="0.833374" width="363" height="231" rx="12" fill="url(#paint0_linear_135_358)"/>
<path d="M261.576 42.3667V24.9122H268.565C269.849 24.9122 270.92 25.1025 271.778 25.4832C272.636 25.8639 273.281 26.3923 273.712 27.0684C274.144 27.7389 274.36 28.5116 274.36 29.3866C274.36 30.0684 274.224 30.6678 273.951 31.1849C273.678 31.6962 273.303 32.1167 272.826 32.4462C272.355 32.7701 271.815 33.0002 271.207 33.1366V33.307C271.872 33.3354 272.494 33.5229 273.073 33.8695C273.658 34.2161 274.133 34.7019 274.497 35.3269C274.86 35.9462 275.042 36.6849 275.042 37.5428C275.042 38.469 274.812 39.2957 274.352 40.0229C273.897 40.7445 273.224 41.3156 272.332 41.736C271.44 42.1565 270.34 42.3667 269.033 42.3667H261.576ZM265.266 39.3497H268.275C269.303 39.3497 270.053 39.1536 270.525 38.7616C270.997 38.3639 271.232 37.8354 271.232 37.1764C271.232 36.6934 271.116 36.2673 270.883 35.8979C270.65 35.5286 270.318 35.2389 269.886 35.0286C269.46 34.8184 268.951 34.7133 268.36 34.7133H265.266V39.3497ZM265.266 32.2161H268.002C268.508 32.2161 268.957 32.1281 269.349 31.9519C269.747 31.7701 270.059 31.5144 270.286 31.1849C270.519 30.8553 270.636 30.4604 270.636 30.0002C270.636 29.3695 270.411 28.861 269.962 28.4747C269.519 28.0883 268.889 27.8951 268.07 27.8951H265.266V32.2161ZM280.452 42.3667H276.497L282.523 24.9122H287.279L293.296 42.3667H289.341L284.969 28.9008H284.832L280.452 42.3667ZM280.205 35.5059H289.546V38.3866H280.205V35.5059ZM309.996 24.9122V42.3667H306.808L299.215 31.3809H299.087V42.3667H295.396V24.9122H298.635L306.169 35.8894H306.323V24.9122H309.996ZM313.045 42.3667V24.9122H316.735V32.6082H316.965L323.247 24.9122H327.67L321.193 32.7275L327.747 42.3667H323.332L318.551 35.1906L316.735 37.4065V42.3667H313.045Z" fill="white"/>
<rect x="37.167" y="62.9333" width="63.5333" height="47.4" rx="9.5" fill="#DEB752" stroke="black"/>
<path d="M68.9332 62.8333V68.6667M68.9332 68.6667H38M68.9332 68.6667H100M68.9332 68.6667C64.5332 68.7889 56.1732 71.4534 57.9332 81.1334M37.0332 81.1334H57.9332M57.9332 81.1334C58.1776 82.1111 59.3265 84.58 61.9665 86.6334C59.9132 89.5667 58.4221 92.5 57.9332 93.6M37.0332 93.6H57.9332M57.9332 93.6C57.811 97.5111 59.8399 105.333 68.9332 105.333M38 105.333H68.9332M99.5 105.333L68.9332 105.333M80.2999 93.6H100.833M80.2999 93.6C80.7888 97.5111 79.1999 105.333 68.9332 105.333M80.2999 93.6C80.0554 91.8889 78.8332 88.1 75.8999 86.6334C78.5399 85.7534 79.9332 82.6 80.2999 81.1334H100.833" stroke="black"/>
<defs>
<linearGradient id="paint0_linear_135_358" x1="363" y1="1.33339" x2="-4.40436e-06" y2="232.333" gradientUnits="userSpaceOnUse">
<stop stop-color="#E90065"/>
<stop offset="1" stop-color="#300DBB"/>
</linearGradient>
</defs>
</svg>
